<?xml version="1.0" standalone="no"?><!DOCTYPE svg PUBLIC "-//W3C//DTD SVG 1.1//EN" "http://www.w3.org/Graphics/SVG/1.1/DTD/svg11.dtd"><svg t="1710396261922" class="icon" viewBox="0 0 1024 1024" version="1.1" xmlns="http://www.w3.org/2000/svg" p-id="10636" xmlns:xlink="http://www.w3.org/1999/xlink" width="200" height="200"><path d="M580.964255 388.936562c29.111044 0 52.622551-21.292977 52.622551-47.513178 0-26.219178-23.674213-47.508061-52.622551-47.508061-29.110021 0-52.622551 21.288883-52.622551 47.508061C528.183092 367.643585 551.853211 388.936562 580.964255 388.936562zM580.964255 296.455172c27.671251 0 50.065306 20.183712 50.065306 44.968213 0 24.790641-22.394055 44.967189-50.065306 44.967189-27.512638 0-50.061213-20.177572-50.061213-44.967189C530.903043 316.638883 553.296075 296.455172 580.964255 296.455172z" p-id="10637"></path><path d="M580.964255 373.361826c19.515492 0 35.351171-14.302765 35.351171-31.778806 0-17.6367-15.835679-31.781876-35.351171-31.781876-19.511399 0-35.347078 14.301742-35.347078 31.781876C545.617177 359.060084 561.452856 373.361826 580.964255 373.361826zM596.161391 356.040305c1.918701-2.062987 4.797264-2.537802 6.39567-1.111312 1.598406 1.42956 1.442863 4.130068-0.479931 6.199195-1.918701 2.068104-4.797264 2.538825-6.399763 1.112335C594.079984 360.810963 594.24269 358.108409 596.161391 356.040305zM557.931656 323.468436c5.277195-5.563721 12.953023-6.830576 17.438178-3.017733 4.476969 3.813866 3.837402 11.439551-1.442863 16.998156-5.277195 5.564745-12.954046 6.835692-17.438178 3.021826C552.012847 336.500253 552.650368 328.872521 557.931656 323.468436z" p-id="10638"></path><path d="M420.376653 388.936562c29.111044 0 52.620504-21.292977 52.620504-47.513178 0-26.219178-23.673189-47.508061-52.620504-47.508061-29.112067 0-52.624597 21.288883-52.624597 47.508061C367.752056 367.643585 391.426268 388.936562 420.376653 388.936562zM420.376653 296.455172c27.673297 0 50.065306 20.183712 50.065306 44.968213 0 24.790641-22.392009 44.967189-50.065306 44.967189-27.512638 0-50.061213-20.177572-50.061213-44.967189C370.31544 316.638883 392.864015 296.455172 420.376653 296.455172z" p-id="10639"></path><path d="M944.686527 521.456894c-0.638544-0.958839-1.277087-1.752925-1.922794-2.864237-0.317225-0.317225-0.479931-0.633427-0.797156-0.951676-0.320295-0.317225-1.918701-0.638544-2.24002-0.955769-11.034322-14.302765-28.631113-39.086243-61.419923-44.807553l0-33.84384c0-4.130068-0.797156-8.420795-4.9569-8.420795L680.130911 429.613024c-0.158613-10.011015-0.317225-17.6367-0.638544-27.013264 23.832825-1.746785 42.222679-18.749035 42.222679-40.200624 0-21.770861-19.352786-39.408584-44.14138-40.520919-1.918701-75.793296-5.76122-139.510543-7.517215-145.869374l-0.479931-0.950652c-1.922794-2.222623-9.278327-5.085837-20.629874-8.105616 0.317225-13.504585-3.203975-28.440778-11.359733-44.650987 3.354401 20.977798-22.235443 34.958221-25.910139 36.865666l-0.484024 0c0.162706-4.29175 0-55.929879-86.050928-94.860579-1.439793 42.743543-13.754272 68.483812-31.188357 84.055478l-0.481978 0-5.277195 0.320295 0 0.154519 0.319272 0 0.319272 0.162706c-0.80125 0.153496-0.957816 0.471745-1.118475 1.110288-10.078553 7.787368-27.349932 17.637723-62.857669 17.637723-12.957116 0-27.510591-1.271971-43.50693-3.814889-4.001131-0.793063-7.519261-1.110288-10.877756-1.110288-5.437855 0-9.758258 0.949629-15.672973 2.222623l-0.323365 0-0.319272 0.160659c-17.11072 3.969409-26.867954 7.465026-29.269656 10.32824l-0.479931 0.952699c-0.481978 2.068104-2.237973 8.10357-5.596467 145.867328-24.634075 0.952699-44.145474 18.749035-44.145474 40.678509 0 21.450566 18.390877 38.292156 42.382315 39.882376-0.156566 9.376564-0.317225 17.002249-0.636497 27.011217L139.988428 429.926156c-4.31938 0-10.237165 4.448316-10.237165 8.420795l0 94.387811c-11.516299 0.632404-19.194174 2.222623-26.069775 4.607952-28.311841 10.168604-34.869194 34.796539-34.712628 58.153526 0 1.43263 0.481978 2.700508 0.962932 3.655253-6.558376 11.277869-6.081515 24.787571-4.957923 34.47829 0.957816 7.788391 2.557245 11.7578 4.31324 13.506632-4.157697 8.586571-0.955769 18.273197 1.918701 25.902976 3.683906 9.850355 11.839665 11.595094 21.596899 9.688673-4.638652 8.743137-2.398632 16.687071 11.353594 27.81042 4.31938 3.497664 13.914932-5.62205 25.434301-14.362117l0 257.630896c0 4.132115 5.915739 5.880947 10.076506 5.880947l733.355167 0c4.321426 0 4.964063-1.748832 4.964063-5.880947L877.986339 650.480585c16.311517-0.952699 28.631113-7.468096 37.591191-19.228966 4.476969-6.035466 7.675827-11.441598 8.472984-16.365752C964.68195 587.715013 969.157896 557.205108 944.686527 521.456894zM279.943087 362.716361c0-19.702757 18.394971-35.750261 40.945592-35.750261l0-2.544965 0.162706 0.635474 0 2.225693c0.479931-0.158613 0.955769-0.158613 1.4357-0.316202l1.764182 0 0-0.477884c5.112443-1.275041 12.472068-2.863214 18.870808-3.65423 9.760304-34.006546 33.269764-62.130098 33.269764-62.130098s-9.594529-27.965963-13.59566-65.144761c49.9026 82.464236 223.607977 78.65037 273.189259 10.482759-4.476969 31.782899-12.315502 54.662002-12.315502 54.662002s23.51253 27.96494 33.269764 62.130098c6.39567 0.791016 13.59566 1.112335 18.551537 2.222623l0-2.542918 0.484024 0c22.548575 0 40.945592 18.114584 40.945592 37.819388 0 9.056269-3.837402 18.114584-10.241259 24.627935-9.912777 6.515397-24.468299 10.011015-39.824047 10.011015 0 6.515397 0.959862 18.749035 1.760088 34.323771l-346.928777 0c0.162706-10.011015 0.481978-19.226919 0.641614-29.237934l0-2.066057-2.561338 0.317225C297.377172 397.829102 279.943087 382.099846 279.943087 362.716361zM873.508347 948.2548c0 4.286634-1.118475 6.352691-5.277195 6.352691l-723.123118 0c-4.160767 0-10.556437-2.066057-10.556437-6.198172l0-257.730157c5.757126-1.110288 4.751215-1.103125 6.558376-1.965773 17.475017-8.349164 37.10819-25.682965 25.111959-33.312743-0.162706 0-1.439793-0.154519-1.601476-0.154519 9.277303-3.659347 17.11686-9.532107 17.11686-20.021006l0 280.294081 638.991914-2.383283L820.72923 630.29892c9.594529 9.370424 21.112875 14.141082 33.745602 10.013061 3.199882 6.352691 13.278434 9.53313 19.035561 10.008968L873.510393 948.2548zM184.611786 619.179663l0 9.215905c0-3.343145-2.077314-6.042629-4.638652-7.787368C181.573587 620.128269 183.654994 619.651408 184.611786 619.179663zM182.2152 577.862611c0.80125-0.477884 1.439793-0.952699 2.396586-1.42956l0 1.905398C183.654994 578.17779 183.01645 578.02327 182.2152 577.862611zM187.492396 579.768009l0-7.147801c4.19863-2.271742 5.057184-4.130068 6.337342-6.51335 5.277195-10.17372 4.221142-17.638747-6.337342-23.042832l0-54.026528 600.123636 0c-2.719951 5.403062-4.638652 7.627732-5.439901 11.918459-1.4357 7.785321-1.598406 17.797359-1.118475 27.328443l-89.246716 57.202874c0 0-27.67432 14.779626-16.319704 31.779829 11.359733 16.846707 31.509676 11.127443 49.268149 0.321318 11.831478-7.155987 38.705572-22.568017 62.376715-38.932747 0.162706 0.160659 0.321318 0.160659 0.479931 0.318249-1.755995 1.272994-2.878563 2.222623-2.878563 2.222623-10.875709 7.309483-6.715965 35.752308 15.035453 40.040988 3.041269 0.641614 9.435916 0 9.435916-1.110288l0 284.267583-621.716442 0L187.492396 617.268125c10.558484-4.131091 15.198159-10.646488 14.714135-21.29093C201.726599 587.871579 198.051903 582.787789 187.492396 579.768009zM873.671053 471.085619c0-0.479931-6.558376-1.42956-10.558484-1.112335-22.231349 2.222623-43.344224 3.495617-59.180927 8.897656l-620.915192 0-1.280157 2.701531 0 58.313162c-10.558484-5.718241-24.955393-8.10357-47.02813-7.625685l0-89.300951-0.156566 0c0-3.975549 6.239104-8.900726 10.556437-8.900726l723.123118 0c4.158721 0 5.439901 4.770658 5.439901 8.900726L873.671053 471.085619z" p-id="10640"></path><path d="M580.325711 784.429453l3.837402 0.157589c9.758258 13.98247 32.631221 21.770861 68.295524 23.5156l9.599645 0.479931 0.638544-12.713569 3.837402 0.158613c-2.87447 6.038536-4.955877 19.859323-6.074352 41.627114l-0.162706 1.910515c5.598514 0.158613 11.038415 4.766565 16.478316 13.502539 28.305701 0 42.543998-2.383283 42.865316-7.145754l1.918701-36.546394 46.702718-10.488899 0.162706-3.815913c-13.437047-18.907648-26.394163-28.59939-38.709666-29.233841 7.358602-40.515803 11.514253-71.506662 12.636821-92.794522l0.641614-10.964737c-9.757234-10.168604-14.559615-16.528458-14.396909-18.911741l-3.837402-0.154519c-7.19999-0.479931-16.958247 0.318249-29.114114 2.379189-8.63569 10.488899-17.75131 15.573713-27.671251 15.093782-57.578427 65.947034-86.692541 105.986999-87.493791 120.287717L580.325711 784.429453zM645.58406 790.94485l-17.275473-0.79204-9.594529-2.387376 0.158613-1.744739c9.274233-1.907445 14.392816-2.863214 15.677067-2.863214l30.704333 1.430583c2.561338 0.158613 3.837402-0.951676 4.162814-3.652183 0.317225-6.514374 12.152797-11.916413 35.505691-16.372916l1.757018 0.161683-0.63445 12.713569C675.812555 786.971348 655.659542 791.420688 645.58406 790.94485zM716.599534 689.886099l1.918701 0.158613-0.317225 5.563721c-0.479931 8.89868-12.477185 15.728232-35.831102 20.336184l0.479931-7.468096C683.17218 702.754187 694.527821 696.560109 716.599534 689.886099zM685.253587 697.666304l0.63445-12.705382c1.122568-3.656277 12.319596-7.948027 33.591083-13.19043l1.761112 0.158613-2.398632 9.211812-0.321318 7.309483C711.480951 687.978654 700.284947 691.155 685.253587 697.666304zM715.156671 710.225353l-0.154519 1.903351-2.561338 10.810217c-15.672973 6.511304-23.670119 10.3221-23.670119 11.753707l1.918701 0.161683c3.837402 0.154519 11.034322-1.906421 21.4301-6.360878l-0.638544 12.876275-33.111152 9.215905 0.642637-12.713569 2.24002-3.497664-1.922794-0.161683 2.561338-9.216928 0.320295-5.555535L715.156671 710.225353zM709.56225 746.454522l-0.638544 10.961667c0 2.700508-11.839665 6.515397-35.192559 11.123349l2.398632-9.054222 0.320295-5.563721C687.489514 750.904885 698.523835 748.357874 709.56225 746.454522zM681.732387 692.273475c-4.321426 34.160042-9.119714 63.076657-14.234203 87.068095l-23.191212-1.110288 12.632728-19.542098c13.59566-13.352113 21.272511-36.229169 23.032599-68.485859l1.918701 0.157589L681.732387 692.273475zM699.487791 828.285331c-0.162706 3.65116-11.835571 6.198172-35.188465 7.467073l0.638544-10.964737c2.081407 0.157589 13.758366-1.748832 35.029853-5.564745L699.487791 828.285331zM700.284947 812.077168c-0.162706 3.176346-11.192934 6.356784-33.265671 9.215905l-1.918701-0.157589 2.235926-3.497664 0.479931-9.054222 33.107059-7.475259L700.284947 812.077168zM739.152202 771.718954c5.76122 2.701531 8.798395 5.23831 9.119714 7.784298l-0.162706 1.744739c-3.5212-0.158613-17.755404 3.339051-42.865316 10.643418-0.321318 3.814889-12.636821 8.10971-37.269872 13.030794l2.244113-7.149848c0.317225-6.035466 12.152797-11.599187 35.505691-16.684001l-0.162706 3.656277L739.152202 771.718954zM726.036473 765.680418c-6.558376 9.374517-11.998277 13.823857-16.31561 13.661151l0.162706-3.493571c3.037176 0.158613 7.838533-3.179416 14.234203-10.326193L726.036473 765.680418zM689.092013 657.629409c4.155651-7.148824 11.351547-10.488899 21.910031-10.012038l7.675827 0.317225-0.158613 1.911538c-0.959862 0-10.717097 3.176346-29.589952 9.529037L689.092013 657.629409zM651.019868 686.867343l10.237165-12.237731c2.557245-3.176346 22.873986-10.646488 60.941015-22.563924l1.918701 0.162706-2.24002 3.497664-0.638544 12.709476-1.761112-0.158613c-32.15129 10.639325-55.024253 17.471947-68.616842 20.497867L651.019868 686.867343zM630.712336 711.498348c0-1.118475 0.63445-1.590219 1.918701-1.590219 0.471745-9.378611 15.03136-17.321521 43.499767-23.5156l1.922794 0.154519c0 1.114382-0.80125 1.586126-2.077314 1.586126-0.484024 9.378611-15.03443 17.960065-43.665542 25.428161l-1.761112-0.154519L630.712336 711.498348zM607.675644 739.777443c10.237165-3.969409 16.152904-6.828529 17.912993-8.264229l-9.594529-0.471745 6.241151-8.89868c0.638544-2.383283 13.751202-7.30846 39.344116-14.462401l-0.162706 1.903351c-9.277303 14.148246-18.55563 20.977798-28.151182 20.50196l-0.162706 1.906421 7.838533 0.318249 3.841495-1.748832-4.158721 7.149848c-0.162706 4.928248-13.916978 10.330286-41.262817 16.211233C599.361272 751.535243 602.235742 746.772771 607.675644 739.777443zM593.120122 761.071443c0.158613-1.271971 13.115729-5.563721 39.189597-12.713569l-0.162706 1.907445c-2.557245 2.85912-3.837402 5.242403-4.000108 6.991235-0.317225 5.876853-14.071498 11.281962-41.425523 16.203047C586.884087 771.084504 588.965494 766.948296 593.120122 761.071443zM584.484432 778.865732c0.158613-2.383283 11.192934-5.559628 33.428377-9.215905-0.317225 5.880947 2.719951 9.060362 9.277303 9.374517l-0.162706 1.910515c-12.477185 3.176346-19.035561 4.604882-19.674105 4.604882-6.557353-0.318249-14.234203-1.903351-23.027482-4.766565L584.484432 778.865732z" p-id="10641"></path><path d="M703.487899 370.661318c0 1.111312 0 2.067081-0.162706 3.017733 2.081407-3.174299 3.199882-6.993282 3.199882-11.123349 0-11.277869-8.957008-20.493774-19.995423-20.493774-3.358494 0-6.558376 0.791016-9.278327 2.379189C691.81094 344.758343 703.487899 356.359577 703.487899 370.661318z" p-id="10642"></path><path d="M616.469946 295.342837c-9.432846-36.546394-61.738171-30.665447-61.738171-30.665447s-1.4357 7.147801-2.398632 15.731302C569.608615 279.135697 601.434493 278.023362 616.469946 295.342837z" p-id="10643"></path><path d="M487.875021 399.582027c2.400679 0 4.320403-1.907445 4.320403-4.292774 0-2.384306-1.918701-4.289704-4.320403-4.289704-2.398632 0-4.317333 1.905398-4.317333 4.289704C483.557687 397.674582 485.477412 399.582027 487.875021 399.582027z" p-id="10644"></path><path d="M320.248088 341.901269c-3.037176-1.42956-6.076398-2.223647-9.438986-2.223647-9.432846 0-17.271379 6.67094-19.352786 15.569619-4.157697 12.079118 1.599429 27.96494 28.790749 34.639973C321.531315 355.407901 320.248088 341.901269 320.248088 341.901269z" p-id="10645"></path><path d="M220.76216 828.601533l4.317333-1.748832c18.393947 10.488899 47.82324 8.101523 88.44956-7.629779l10.877756-4.123928-6.239104-14.462401 4.318356-1.748832c0.162706 8.101523 5.439901 24.475462 15.996338 49.097257l0.959862 2.066057c6.39874-2.536779 14.87684-0.154519 25.753573 6.833646 31.505583-13.824881 46.064175-23.51253 43.663496-28.917639l-17.753357-41.312959 45.902492-34.639973-1.757018-4.290727c-25.272618-14.144152-44.790157-18.590422-58.861655-13.185314-14.077637-48.626536-26.230434-85.010224-36.631329-109.164368l-5.275149-12.55598c-16.31561-6.515397-25.111959-11.123349-26.230434-13.823857l-4.31938 1.750879c-8.157805 3.174299-18.391901 8.73802-31.031791 16.998156-3.67572 15.888891-11.194981 26.061588-22.392009 30.348222-27.992569 101.379046-38.388347 160.173163-31.505583 176.376209L220.76216 828.601533zM223.480064 822.566067l-0.960885-2.066057c-1.120521-2.863214 9.441032-11.7578 31.992677-26.697062 2.876517 6.833646 7.995099 8.74109 15.352678 5.880947l0.962932 2.067081c-12.158936 9.53313-18.553583 14.454214-19.354833 14.772463C244.116077 819.385628 234.839797 821.451685 223.480064 822.566067zM330.963138 812.394393l32.789833-24.789617 5.281289 12.55598c1.599429 3.810796-8.958031 12.550863-31.829971 26.691946l-2.24002 0.793063 0.481978-4.925178L330.963138 812.394393zM342.0036 844.170129l-5.281289-12.388157c2.242066-0.955769 14.240343-8.743137 35.831102-23.514577l4.475946 10.3221C378.792517 822.720586 367.115559 831.302041 342.0036 844.170129zM369.991052 737.076935l2.244113-0.793063c-2.244113 13.668315-5.763266 21.29093-10.558484 23.202468l-1.760088-3.977595C363.432676 754.080208 366.796287 748.041672 369.991052 737.076935zM360.076228 767.58684l30.067836-30.990859c7.677874 0.321318 12.477185 1.595336 14.240343 4.29482l0.79511 1.903351c-3.994991 1.430583-17.909923 12.396344-41.746841 32.897281 1.920748 4.283564-9.432846 15.251371-34.068967 32.728435l-1.436723-9.054222c-3.039222-6.995328 7.037284-18.911741 30.230542-36.070556L360.076228 767.58684zM356.400509 759.169115c-28.311841 25.418951-48.308287 40.198578-59.661881 44.643824l-19.515492 7.629779-11.996231 2.062987-0.80125-1.903351c9.121761-6.832622 14.396909-10.492992 15.836703-10.964737l34.867147-13.502539c2.88061-1.114382 3.681859-3.180439 2.563385-5.88504-3.199882-7.46298 6.875601-19.379392 30.387108-35.750261l2.081407-0.793063L356.400509 759.169115zM279.943087 675.106473l1.918701-0.63445 0.961909 2.061964c13.752226 40.045081 24.31071 74.529512 31.669312 103.60474l-26.231457 10.17065 3.358494-27.969033C299.458579 740.890801 295.618107 711.81148 279.943087 675.106473zM349.041907 735.489785c1.277087 3.017733-9.758258 12.868088-33.113198 29.552089l-2.23695-11.277869-2.719951-6.198172c10.395778-8.740067 21.273534-17.004296 32.789833-24.625888L349.041907 735.489785zM330.963138 682.414933l3.039222 13.1935c-13.914932 14.772463-20.473308 23.036692-19.830671 24.625888l2.24002-0.955769c4.476969-1.744739 11.194981-7.625685 20.310602-17.634653l6.237058 14.61692-31.668289 26.534356-6.239104-14.455238 0.481978-4.928248-2.238996 0.793063-2.237973-11.441598-2.719951-6.198172 31.668289-26.213038L330.963138 682.414933zM325.206012 662.395974c4.320403 10.168604-5.118583 23.5156-28.468407 40.199601l-3.681859-8.419772c-2.719951-6.515397 6.239104-18.908671 27.191319-37.184938l2.238996-0.793063L325.206012 662.395974zM318.168728 646.030222l3.519154 8.260136c-7.995099 3.176346-18.711173 12.076049-31.829971 26.696039l-6.235011-14.462401c-0.641614-4.607952 9.434893-14.77451 30.069883-30.982673l2.07629-0.79204L318.168728 646.030222zM291.138068 612.818786l8.637736-3.334958 0.959862 2.066057c-0.80125 0.320295-10.078553 8.578384-27.512638 24.94823l-0.79511-1.903351C273.065439 624.736222 279.302496 617.426738 291.138068 612.818786zM250.829996 667.000856c1.120521-4.762472 19.515492-23.036692 55.185935-54.978204l2.237973-0.794086-0.481978 4.930294 6.239104 14.457284-2.081407 0.796133c-29.748564 27.485009-51.34137 46.393679-64.777394 56.406741l-0.960885-2.070151L250.829996 667.000856zM273.866688 672.564578l2.23695-0.793063c0.481978 1.272994 0 2.22467-1.437747 2.85912 4.636605 10.803054-6.880718 27.331513-34.549922 49.736824l-2.081407 0.793063-0.955769-2.067081c-0.639567-1.267878-0.162706-2.22467 1.280157-3.01671C233.875842 709.428197 245.715507 693.538283 273.866688 672.564578zM227.15783 765.680418c8.957008-9.537223 14.077637-15.414077 15.196112-17.956995l-10.877756 4.132115 1.918701-12.872182c-0.636497-3.176346 11.197028-14.934146 35.833149-35.436106l0.955769 2.066057c-2.557245 20.181665-9.115621 32.423489-19.99133 36.551511l0.957816 2.061964 8.800442-3.334958 3.356448-3.814889-0.799203 10.012038c2.400679 5.556558-9.9138 18.270127-36.945484 38.292156C224.43788 782.676528 224.919857 776.165224 227.15783 765.680418zM222.360566 796.345866c-0.636497-1.427514 11.515276-12.554956 36.469646-33.365955l0.959862 2.062987c-1.282204 4.44934-1.601476 7.787368-0.638544 9.854449 2.87754 6.672986-9.440009 19.542098-37.107166 38.453839C220.922819 810.649654 221.081432 805.085933 222.360566 796.345866z" p-id="10646"></path><path d="M420.376653 373.361826c19.515492 0 35.349125-14.302765 35.349125-31.778806 0-17.6367-15.834656-31.781876-35.349125-31.781876-19.511399 0-35.347078 14.301742-35.347078 31.781876C385.029575 359.060084 400.865254 373.361826 420.376653 373.361826zM435.729331 356.040305c1.924841-2.062987 4.801357-2.537802 6.400787-1.111312 1.599429 1.42956 1.437747 4.130068-0.481978 6.199195-1.918701 2.068104-4.796241 2.538825-6.39567 1.112335C433.490335 360.810963 433.653041 358.108409 435.729331 356.040305zM397.346101 323.468436c5.275149-5.563721 12.954046-6.830576 17.434085-3.017733 4.476969 3.813866 3.837402 11.439551-1.443886 16.998156-5.275149 5.564745-12.953023 6.835692-17.434085 3.021826C391.426268 336.500253 392.064812 328.872521 397.346101 323.468436z" p-id="10647"></path><path d="M529.780475 387.029117c0.641614-15.256487-32.14822-47.667697-32.14822-47.667697 0 17.6367 9.115621 41.471572 12.15382 47.189812-7.84058 11.277869-12.953023 31.300921-12.953023 31.300921S529.141931 402.437054 529.780475 387.029117z" p-id="10648"></path><path d="M445.486566 281.043142c-0.799203-8.578384-2.075267-15.731302-2.075267-15.731302s-52.303279-6.833646-62.379785 29.555159C396.545874 277.862703 428.215186 279.613582 445.486566 281.043142z" p-id="10649"></path><path d="M427.252254 699.256523c31.512746 27.493195 62.701103 38.300343 93.572236 32.419396 7.517215-1.590219 17.438178-4.770658 29.590975-9.696859 46.22688-34.476244 63.49826-79.446503 51.984007-134.42266-2.24002-10.488899-8.001239-24.790641-17.434085-42.901132-18.872855-25.744363-54.224026-33.68932-106.527305-23.832825l-23.991438 6.512327c-42.867363 24.15312-57.74318 67.212865-44.786064 129.022668C412.379507 669.066914 418.136633 683.369679 427.252254 699.256523zM415.256024 663.506262c17.595768-16.84159 29.112067-25.74027 34.550945-26.854651l3.680836 17.480134c-3.680836 0.63445-14.878887 8.10664-33.269764 22.402242C419.418837 672.564578 417.656702 668.276921 415.256024 663.506262zM422.612579 677.969687c4.638652-0.956792 15.04057-8.264229 31.351063-21.926404 3.198858 8.89868 4.962017 13.819764 5.281289 14.935169l-27.191319 21.295023C427.733209 692.273475 424.695009 687.502817 422.612579 677.969687zM443.411299 706.251851c-1.918701 0.314155-5.281289-2.387376-10.239212-8.105616-0.319272-1.586126 9.278327-9.53313 28.793819-23.674213 5.437855 5.722334 8.477077 10.488899 9.275257 14.303788-5.281289 0.951676-13.276388 6.515397-23.991438 16.679908L443.411299 706.251851zM449.006742 713.405792l-0.481978-2.069127c8.157805-9.692766 17.916063-16.842614 29.430316-21.609179 0.800226 3.811819 4.162814 6.511304 10.076506 8.102547 0 3.017733-9.113574 9.532107-27.510591 19.228966C455.245847 714.198855 451.406398 712.925861 449.006742 713.405792zM489.953358 554.66219c16.156998 2.226717 26.235551 3.02285 30.073976 2.226717l5.911646-1.110288 6.081515 18.903554 2.394539 11.601234c9.123807 43.377993 1.764182 81.677312-22.229303 114.881585l-3.998061 0.797156c-15.672973-6.67094-24.9513-17.000203-27.83191-30.982673l-4.476969-21.132317C468.83946 615.998201 473.318475 584.378008 489.953358 554.66219zM496.352098 716.423525l-12.315502 2.383283-14.557569 0.63445-0.477884-2.067081 23.993484-16.682978c6.714942 3.969409 13.270248 5.399992 19.99133 4.132115l0.481978 2.066057C504.347197 712.763155 498.751753 715.944617 496.352098 716.423525zM514.587432 712.925861l-4.001131 0.796133-0.479931-2.069127c24.955393-15.889915 41.905454-28.59939 51.021075-37.819388C549.454579 696.23879 533.940218 709.269584 514.587432 712.925861zM520.181853 699.736454c2.24002-5.879923 4.321426-8.897656 6.558376-9.374517-2.078337-9.691743 13.916978-27.489102 48.145581-53.230395 0.320295 2.2216-0.317225 5.719264-2.23695 10.485829C574.88581 658.74379 557.451725 676.216761 520.181853 699.736454zM537.615938 662.079772c-0.317225-1.277087 0.962932-8.89868 3.682883-22.881149l34.225533-28.601437 1.918701-0.320295c0.645707 2.541895 0.162706 7.312553-1.118475 14.304812C577.605761 630.454462 564.648645 642.850806 537.615938 662.079772zM576.007355 582.468517c-3.678789 0.636497-9.440009 6.515397-17.274449 17.482181 3.837402-0.79511 9.436939-4.607952 16.311517-11.444668l2.398632 11.601234c-5.277195 8.742114-17.108673 19.702757-35.344008 32.893187-0.483001-1.903351-0.324388-7.948027 0.317225-18.114584-0.317225-1.589196 2.878563-6.197149 9.758258-13.822834l-9.758258 3.813866-2.398632-11.601234c1.43877-2.701531 11.994184-12.712546 31.98449-30.03202L576.007355 582.468517zM570.088546 555.29971l0.479931 2.062987c0.162706 1.272994-9.115621 10.332333-28.151182 27.491148l-4.000108 0.79511 0.484024-8.104593-4.158721-9.376564c2.24002-0.317225 11.672865-8.899703 28.468407-25.579611C565.928802 542.10928 568.169845 546.241395 570.088546 555.29971zM553.451617 526.379001c0.479931 1.905398 3.362588 5.403062 8.639783 10.488899l0.479931 2.062987c-13.437047 11.122326-22.235443 19.548238-26.391093 25.107866l-2.081407 0.477884-7.358602-14.779626 22.71435-22.561878L553.451617 526.379001zM549.134284 525.430396c-5.436831 0.949629-13.115729 7.781228-23.195305 20.49275-8.63262-6.514374-13.58952-9.532107-14.714135-9.371448l-3.677766 2.702554c-0.319272-1.434677 6.239104-7.310507 19.676151-17.797359C541.136115 521.294188 548.49574 522.567182 549.134284 525.430396zM518.424834 521.138645c-1.598406 5.240356-9.119714 12.709476-22.71128 22.559831-2.400679 0.477884-8.955985-0.477884-19.515492-2.538825l-0.319272-1.905398c11.835571-10.332333 19.192127-15.735395 21.753465-16.209186L518.424834 521.138645zM483.394982 523.993672l2.081407-0.475838c-3.358494 8.581454-9.915847 13.82795-19.993376 15.735395-7.838533 11.916413-24.953347 27.962893-51.345463 47.985946l-0.477884-2.068104C424.215078 551.169642 447.405267 530.670752 483.394982 523.993672zM411.578258 595.65997c-0.160659-1.428537 14.23625-13.506632 43.185611-36.391875 3.199882 15.414077-11.196004 33.528661-43.502837 54.506459C410.617372 610.596162 410.779055 604.55865 411.578258 595.65997zM411.261032 624.101771c1.755995-6.035466 13.59566-17.002249 35.507737-32.895234l1.917678-0.315179c1.758042 17.001226-2.557245 26.53538-13.113682 28.60553l0.799203 3.969409c3.520177-0.793063 7.358602-2.85912 11.353594-6.356784l2.081407 9.691743c0.800226 3.815913-10.556437 13.348019-34.225533 28.59939l-2.081407 0.325412c-0.961909-3.977595-1.120521-8.586571-0.80125-13.828974-0.479931-2.066057 4.158721-7.629779 13.597706-16.682978-4.001131 0.793063-9.121761 3.652183-15.198159 8.735974C410.300147 629.660376 410.300147 626.325418 411.261032 624.101771z" p-id="10650"></path></svg>